<svg viewBox="0 0 36 36" fill="none" xmlns="http://www.w3.org/2000/svg">
<mask id="mask0_65_958" style="mask-type:alpha" maskUnits="userSpaceOnUse" x="0" y="0" width="100%" height="100%">
<rect width="100%" height="100%" fill="#D9D9D9"/>
</mask>
<g mask="url(#mask0_65_958)">
<rect x="10.8" y="7.20001" width="14.4" height="11.7" fill="#FAFAFA"/>
<rect x="10.8" y="16.2" width="14.4" height="2.7" fill="#FFB800"/>
<rect x="5.4" y="19.8" width="26.1" height="9" fill="#FAFAFA"/>
<path d="M2.99992 29.9999V22.4999C2.99992 21.2499 3.43742 20.1874 4.31242 19.3124C5.18742 18.4374 6.24992 17.9999 7.49992 17.9999H8.99992V5.99994H26.9999V17.9999H28.4999C29.7499 17.9999 30.8124 18.4374 31.6874 19.3124C32.5624 20.1874 32.9999 21.2499 32.9999 22.4999V29.9999H2.99992ZM11.9999 17.9999H23.9999V8.99994H11.9999V17.9999ZM5.99992 26.9999H29.9999V22.4999C29.9999 22.0749 29.8559 21.7184 29.5679 21.4304C29.2809 21.1434 28.9249 20.9999 28.4999 20.9999H7.49992C7.07492 20.9999 6.71842 21.1434 6.43042 21.4304C6.14342 21.7184 5.99992 22.0749 5.99992 22.4999V26.9999Z" fill="#DA251D"/>
<path d="M28.0679 25.068C27.7809 25.356 27.4249 25.5 26.9999 25.5C26.5749 25.5 26.2189 25.356 25.9319 25.068C25.6439 24.781 25.4999 24.425 25.4999 24C25.4999 23.575 25.6439 23.2185 25.9319 22.9305C26.2189 22.6435 26.5749 22.5 26.9999 22.5C27.4249 22.5 27.7809 22.6435 28.0679 22.9305C28.3559 23.2185 28.4999 23.575 28.4999 24C28.4999 24.425 28.3559 24.781 28.0679 25.068Z" fill="#FFB800"/>
</g>
</svg>
