<svg width="36" height="36" viewBox="0 0 36 36" fill="none" xmlns="http://www.w3.org/2000/svg">
<mask id="mask0_1081_9787" style="mask-type:alpha" maskUnits="userSpaceOnUse" x="0" y="0" width="100%" height="100%">
<rect width="100%" height="100%" fill="#D9D9D9"/>
</mask>
<g mask="url(#mask0_1081_9787)">
<rect x="5" y="11" width="26" height="10" fill="#FFB800"/>
<rect width="26" height="10" transform="matrix(1 0 0 -1 5 31)" fill="#FAFAFA"/>
<rect x="15" y="17" width="6" height="6" fill="#FFB800"/>
<path d="M6 31.5C5.175 31.5 4.46875 31.2063 3.88125 30.6188C3.29375 30.0312 3 29.325 3 28.5V12C3 11.175 3.29375 10.4688 3.88125 9.88125C4.46875 9.29375 5.175 9 6 9H12V6C12 5.175 12.2937 4.46875 12.8813 3.88125C13.4688 3.29375 14.175 3 15 3H21C21.825 3 22.5312 3.29375 23.1188 3.88125C23.7063 4.46875 24 5.175 24 6V9H30C30.825 9 31.5312 9.29375 32.1188 9.88125C32.7063 10.4688 33 11.175 33 12V28.5C33 29.325 32.7063 30.0312 32.1188 30.6188C31.5312 31.2063 30.825 31.5 30 31.5H6ZM15 9H21V6H15V9ZM30 22.5H22.5V25.5H13.5V22.5H6V28.5H30V22.5ZM16.5 22.5H19.5V19.5H16.5V22.5ZM6 19.5H13.5V16.5H22.5V19.5H30V12H6V19.5Z" fill="#DA251D"/>
</g>
</svg>
