<svg viewBox="0 0 36 36" fill="none" xmlns="http://www.w3.org/2000/svg">
<mask id="mask0_65_940" style="mask-type:alpha" maskUnits="userSpaceOnUse" x="0" y="0" width="100%" height="100%">
<rect width="100%" height="100%" fill="#D9D9D9"/>
</mask>
<g mask="url(#mask0_65_940)">
<path d="M27.9 16.65H8.54999L7.64999 23.4L9.89999 27L21.6 27.45L27.9 25.2V16.65Z" fill="#FAFAFA"/>
<path d="M8.54999 9.90001V15.3L9.89999 15.75H27.9V9.45001L8.54999 9.90001Z" fill="#FFB800"/>
<path d="M8.10001 6.29999L8.55001 9.44999L28.35 8.99999V6.74999L16.2 4.04999L8.10001 6.29999Z" fill="#FAFAFA"/>
<path d="M14.3431 23.3431C13.9061 23.7811 13.3751 24.0001 12.7501 24.0001C12.1251 24.0001 11.5941 23.7811 11.1571 23.3431C10.7191 22.9061 10.5001 22.3751 10.5001 21.7501C10.5001 21.1251 10.7191 20.5941 11.1571 20.1571C11.5941 19.7191 12.1251 19.5001 12.7501 19.5001C13.3751 19.5001 13.9061 19.7191 14.3431 20.1571C14.7811 20.5941 15.0001 21.1251 15.0001 21.7501C15.0001 22.3751 14.7811 22.9061 14.3431 23.3431Z" fill="#FFB800"/>
<path d="M24.8431 23.3431C24.4061 23.7811 23.8751 24.0001 23.2501 24.0001C22.6251 24.0001 22.0941 23.7811 21.6571 23.3431C21.2191 22.9061 21.0001 22.3751 21.0001 21.7501C21.0001 21.1251 21.2191 20.5941 21.6571 20.1571C22.0941 19.7191 22.6251 19.5001 23.2501 19.5001C23.8751 19.5001 24.4061 19.7191 24.8431 20.1571C25.2811 20.5941 25.5001 21.1251 25.5001 21.7501C25.5001 22.3751 25.2811 22.9061 24.8431 23.3431Z" fill="#FFB800"/>
<path d="M9.00006 31.5001C8.57506 31.5001 8.21856 31.3561 7.93056 31.0681C7.64356 30.7811 7.50006 30.4251 7.50006 30.0001V26.9251C7.05006 26.4251 6.68756 25.8686 6.41256 25.2556C6.13756 24.6436 6.00006 23.9751 6.00006 23.2501V9.00006C6.00006 6.92506 6.96256 5.40606 8.88756 4.44306C10.8126 3.48106 13.8501 3.00006 18.0001 3.00006C22.3001 3.00006 25.3751 3.46256 27.2251 4.38756C29.0751 5.31256 30.0001 6.85006 30.0001 9.00006V23.2501C30.0001 23.9751 29.8626 24.6436 29.5876 25.2556C29.3126 25.8686 28.9501 26.4251 28.5001 26.9251V30.0001C28.5001 30.4251 28.3561 30.7811 28.0681 31.0681C27.7811 31.3561 27.4251 31.5001 27.0001 31.5001H25.5001C25.0751 31.5001 24.7191 31.3561 24.4321 31.0681C24.1441 30.7811 24.0001 30.4251 24.0001 30.0001V28.5001H12.0001V30.0001C12.0001 30.4251 11.8566 30.7811 11.5696 31.0681C11.2816 31.3561 10.9251 31.5001 10.5001 31.5001H9.00006ZM9.00006 15.0001H27.0001V10.5001H9.00006V15.0001ZM9.67506 7.50006H26.4751C26.1001 7.07506 25.2941 6.71856 24.0571 6.43056C22.8191 6.14356 20.8251 6.00006 18.0751 6.00006C15.4001 6.00006 13.4436 6.15606 12.2056 6.46806C10.9686 6.78106 10.1251 7.12506 9.67506 7.50006ZM12.0001 25.5001H24.0001C24.8251 25.5001 25.5316 25.2066 26.1196 24.6196C26.7066 24.0316 27.0001 23.3251 27.0001 22.5001V18.0001H9.00006V22.5001C9.00006 23.3251 9.29406 24.0316 9.88206 24.6196C10.4691 25.2066 11.1751 25.5001 12.0001 25.5001Z" fill="#DA251D"/>
</g>
</svg>
