<svg viewBox="0 0 24 24" fill="none" xmlns="http://www.w3.org/2000/svg">
<mask id="mask0_141_773" style="mask-type:alpha" maskUnits="userSpaceOnUse" x="0" y="0" width="100%" height="100%">
<rect width="100%" height="100%" fill="#D9D9D9"/>
</mask>
<g mask="url(#mask0_141_773)">
<path d="M5 22C4.45 22 3.979 21.8043 3.587 21.413C3.19567 21.021 3 20.55 3 20V6C3 5.45 3.19567 4.97933 3.587 4.588C3.979 4.196 4.45 4 5 4H6V2H8V4H16V2H18V4H19C19.55 4 20.021 4.196 20.413 4.588C20.8043 4.97933 21 5.45 21 6V20C21 20.55 20.8043 21.021 20.413 21.413C20.021 21.8043 19.55 22 19 22H5ZM5 20H19V10H5V20Z" fill="#DA251D"/>
<path d="M7 12V14H17V12H7Z" fill="#FFB800"/>
<path d="M7 16V18H14V16H7Z" fill="#FFB800"/>
</g>
</svg>
