<svg viewBox="0 0 24 24" fill="none" xmlns="http://www.w3.org/2000/svg">
<mask id="mask0_141_921" style="mask-type:alpha" maskUnits="userSpaceOnUse" x="0" y="0" width="100%" height="100%">
<rect width="100%" height="100%" fill="#D9D9D9"/>
</mask>
<g mask="url(#mask0_141_921)">
<rect x="7" y="11" width="11" height="2" fill="#FFB800"/>
<rect x="7" y="15" width="11" height="2" fill="#FFB800"/>
<path d="M5 21C4.45 21 3.979 20.8043 3.587 20.413C3.19567 20.021 3 19.55 3 19V5C3 4.45 3.19567 3.979 3.587 3.587C3.979 3.19567 4.45 3 5 3H16L21 8V19C21 19.55 20.8043 20.021 20.413 20.413C20.021 20.8043 19.55 21 19 21H5ZM7 17H17V15H7V17ZM7 13H17V11H7V13ZM15 9H19L15 5V9ZM7 9H12V7H7V9Z" fill="#DA251D"/>
</g>
</svg>
