<svg width="36" height="36" viewBox="0 0 36 36" fill="none" xmlns="http://www.w3.org/2000/svg">
<mask id="mask0_65_899" style="mask-type:alpha" maskUnits="userSpaceOnUse" x="0" y="0" width="36" height="36">
<rect width="36" height="36" fill="#D9D9D9"/>
</mask>
<g mask="url(#mask0_65_899)">
<path d="M20.7 4.5L10.35 8.55V15.75L11.7 25.2L21.15 31.5L29.25 25.2L31.5 18V8.55L20.7 4.5Z" fill="#FAFAFA"/>
<path d="M21 33.0001C17.525 32.1251 14.6565 30.1311 12.3945 27.0181C10.1315 23.9061 9 20.4501 9 16.6501V7.50006L21 3.00006L33 7.50006V16.6501C33 20.4501 31.869 23.9061 29.607 27.0181C27.344 30.1311 24.475 32.1251 21 33.0001ZM21 29.8501C23.6 29.0251 25.75 27.3751 27.45 24.9001C29.15 22.4251 30 19.6751 30 16.6501V9.56256L21 6.18756L12 9.56256V16.6501C12 19.6751 12.85 22.4251 14.55 24.9001C16.25 27.3751 18.4 29.0251 21 29.8501Z" fill="#DA251D"/>
<path d="M23.2501 23.25H18.7501V19.5H15.0001V15H18.7501V11.25H23.2501V15H27.0001V19.5H23.2501V23.25Z" fill="#FFB800"/>
<path d="M12.2626 30.2626L6.63757 24.6376L10.8563 19.9501H14.1376L16.4813 21.3564L16.9501 26.0439L12.2626 30.2626Z" fill="#FFB800"/>
<path d="M6.63708 23.7594L12.3213 29.3246L8.15237 34.0565L4.8713 34.0912L2.5128 32.7098L1.99448 28.0275L6.63708 23.7594Z" fill="#FAFAFA"/>
<mask id="mask1_65_899" style="mask-type:alpha" maskUnits="userSpaceOnUse" x="-2" y="16" width="23" height="23">
<rect x="-1.79999" y="16.2" width="22.5" height="22.5" fill="#D9D9D9"/>
</mask>
<g mask="url(#mask1_65_899)">
<path d="M6.28601 35.8876C4.81726 35.8876 3.57132 35.376 2.5482 34.3529C1.52445 33.3291 1.01257 32.0829 1.01257 30.6141C1.01257 29.911 1.14539 29.2391 1.41101 28.5985C1.67664 27.9579 2.05945 27.3876 2.55945 26.8876L8.88757 20.5594C9.38757 20.0594 9.95789 19.6766 10.5985 19.411C11.2391 19.1454 11.911 19.0126 12.6141 19.0126C14.0829 19.0126 15.3291 19.5241 16.3529 20.5473C17.376 21.571 17.8876 22.8173 17.8876 24.286C17.8876 24.9891 17.7548 25.661 17.4891 26.3016C17.2235 26.9423 16.8407 27.5126 16.3407 28.0126L10.0126 34.3407C9.51257 34.8407 8.94226 35.2235 8.30164 35.4891C7.66101 35.7548 6.98914 35.8876 6.28601 35.8876ZM12.5204 29.1844L15.0282 26.7001C15.3407 26.3876 15.5829 26.0204 15.7548 25.5985C15.9266 25.1766 16.0126 24.7391 16.0126 24.286C16.0126 23.3485 15.6807 22.5476 15.0169 21.8832C14.3526 21.2194 13.5516 20.8876 12.6141 20.8876C12.161 20.8876 11.7235 20.9735 11.3016 21.1454C10.8798 21.3173 10.5126 21.5594 10.2001 21.8719L7.7157 24.3798L12.5204 29.1844ZM6.28601 34.0126C6.73914 34.0126 7.17664 33.9266 7.59851 33.7548C8.02039 33.5829 8.38757 33.3407 8.70007 33.0282L11.1844 30.5204L6.37976 25.7157L3.87195 28.2001C3.55945 28.5126 3.31726 28.8798 3.14539 29.3016C2.97351 29.7235 2.88757 30.161 2.88757 30.6141C2.88757 31.5516 3.21945 32.3526 3.8832 33.0169C4.54757 33.6807 5.34851 34.0126 6.28601 34.0126Z" fill="#DA251D"/>
</g>
</g>
</svg>
