<svg width="36" height="36" viewBox="0 0 36 36" fill="none" xmlns="http://www.w3.org/2000/svg">
<mask id="mask0_922_6973" style="mask-type:alpha" maskUnits="userSpaceOnUse" x="0" y="0" width="36" height="36">
<rect width="36" height="36" fill="#D9D9D9"/>
</mask>
<g mask="url(#mask0_922_6973)">
<rect x="5" y="8" width="26" height="20" fill="#FAFAFA"/>
<path d="M6 30C5.175 30 4.469 29.7065 3.882 29.1195C3.294 28.5315 3 27.825 3 27V9C3 8.175 3.294 7.469 3.882 6.882C4.469 6.294 5.175 6 6 6H30C30.825 6 31.5315 6.294 32.1195 6.882C32.7065 7.469 33 8.175 33 9V27C33 27.825 32.7065 28.5315 32.1195 29.1195C31.5315 29.7065 30.825 30 30 30H6ZM18 19.5L6 12V27H30V12L18 19.5ZM18 16.5L30 9H6L18 16.5ZM6 12V9V27V12Z" fill="#DA251D"/>
<circle cx="3" cy="3" r="3" transform="matrix(1 0 0 -1 15 21)" fill="#FFB800"/>
</g>
</svg>
