<svg width="36" height="36" viewBox="0 0 36 36" fill="none" xmlns="http://www.w3.org/2000/svg">
<mask id="mask0_65_922" style="mask-type:alpha" maskUnits="userSpaceOnUse" x="0" y="0" width="100%" height="100%">
<rect width="100%" height="100%" fill="#D9D9D9"/>
</mask>
<g mask="url(#mask0_65_922)">
<path d="M7.65 23.85V28.35V28.8H28.35V23.85L18 20.7L7.65 23.85Z" fill="#FFB800"/>
<circle cx="18.45" cy="13.05" r="4.05" fill="#FAFAFA"/>
<path d="M18.0001 17.9999C16.3501 17.9999 14.9376 17.4124 13.7626 16.2374C12.5876 15.0624 12.0001 13.6499 12.0001 11.9999C12.0001 10.3499 12.5876 8.93744 13.7626 7.76244C14.9376 6.58744 16.3501 5.99994 18.0001 5.99994C19.6501 5.99994 21.0626 6.58744 22.2376 7.76244C23.4126 8.93744 24.0001 10.3499 24.0001 11.9999C24.0001 13.6499 23.4126 15.0624 22.2376 16.2374C21.0626 17.4124 19.6501 17.9999 18.0001 17.9999ZM6.00008 29.9999V25.7999C6.00008 24.9499 6.21908 24.1684 6.65708 23.4554C7.09408 22.7434 7.67508 22.1999 8.40008 21.8249C9.95008 21.0499 11.5251 20.4684 13.1251 20.0804C14.7251 19.6934 16.3501 19.4999 18.0001 19.4999C19.6501 19.4999 21.2751 19.6934 22.8751 20.0804C24.4751 20.4684 26.0501 21.0499 27.6001 21.8249C28.3251 22.1999 28.9061 22.7434 29.3431 23.4554C29.7811 24.1684 30.0001 24.9499 30.0001 25.7999V29.9999H6.00008ZM9.00008 26.9999H27.0001V25.7999C27.0001 25.5249 26.9316 25.2749 26.7946 25.0499C26.6566 24.8249 26.4751 24.6499 26.2501 24.5249C24.9001 23.8499 23.5376 23.3434 22.1626 23.0054C20.7876 22.6684 19.4001 22.4999 18.0001 22.4999C16.6001 22.4999 15.2126 22.6684 13.8376 23.0054C12.4626 23.3434 11.1001 23.8499 9.75008 24.5249C9.52508 24.6499 9.34408 24.8249 9.20708 25.0499C9.06908 25.2749 9.00008 25.5249 9.00008 25.7999V26.9999ZM18.0001 14.9999C18.8251 14.9999 19.5316 14.7059 20.1196 14.1179C20.7066 13.5309 21.0001 12.8249 21.0001 11.9999C21.0001 11.1749 20.7066 10.4689 20.1196 9.88194C19.5316 9.29394 18.8251 8.99994 18.0001 8.99994C17.1751 8.99994 16.4691 9.29394 15.8821 9.88194C15.2941 10.4689 15.0001 11.1749 15.0001 11.9999C15.0001 12.8249 15.2941 13.5309 15.8821 14.1179C16.4691 14.7059 17.1751 14.9999 18.0001 14.9999Z" fill="#DA251D"/>
</g>
</svg>
