<svg width="36" height="32" viewBox="0 0 36 32" fill="none" xmlns="http://www.w3.org/2000/svg">
<mask id="mask0_1081_9826" style="mask-type:alpha" maskUnits="userSpaceOnUse" x="0" y="0" width="30" height="27">
<path d="M29.0714 10.7548V6.25714H15.7856V0.5H0.285645V26.6286H17.0922V24.4144H19.2161L17.8341 19.889C17.4421 19.5627 17.1143 19.1712 16.8487 18.731C16.4283 18.0344 16.2064 17.2615 16.2064 16.4429C16.2064 15.2404 16.6476 14.1608 17.5003 13.3082C18.3529 12.4556 19.4325 12.0144 20.635 12.0144C21.5774 12.0144 22.4614 12.2948 23.2256 12.8585C23.5874 13.1254 23.9012 13.4357 24.162 13.7858H24.3242C24.4505 13.42 24.6591 13.0801 24.9514 12.7878C25.4697 12.2695 26.138 12.0144 26.835 12.0144C26.9558 12.0144 27.075 12.0226 27.1919 12.0384L27.8205 11.4468C28.1709 11.1048 28.5979 10.869 29.0714 10.7548Z" fill="#D9D9D9"/>
</mask>
<g mask="url(#mask0_1081_9826)">
<mask id="mask1_1081_9826" style="mask-type:alpha" maskUnits="userSpaceOnUse" x="-2" y="-3" width="33" height="33">
<rect x="-1.48584" y="-2.1571" width="31.8857" height="31.8857" fill="#D9D9D9"/>
</mask>
<g mask="url(#mask1_1081_9826)">
<rect x="2.05713" y="3.15723" width="10.6286" height="20.3714" fill="#FAFAFA"/>
<rect x="2.05713" y="9.3573" width="23.9143" height="14.1714" fill="#FAFAFA"/>
<path d="M1.17139 25.743V1.82874H14.4571V7.14302H27.7428V25.743H1.17139ZM3.82853 23.0859H6.48567V20.4287H3.82853V23.0859ZM3.82853 17.7716H6.48567V15.1144H3.82853V17.7716ZM3.82853 12.4573H6.48567V9.80016H3.82853V12.4573ZM3.82853 7.14302H6.48567V4.48588H3.82853V7.14302ZM9.14282 23.0859H11.8V20.4287H9.14282V23.0859ZM9.14282 17.7716H11.8V15.1144H9.14282V17.7716ZM9.14282 12.4573H11.8V9.80016H9.14282V12.4573ZM9.14282 7.14302H11.8V4.48588H9.14282V7.14302ZM14.4571 23.0859H25.0857V9.80016H14.4571V12.4573H17.1142V15.1144H14.4571V17.7716H17.1142V20.4287H14.4571V23.0859ZM19.7714 15.1144V12.4573H22.4285V15.1144H19.7714ZM19.7714 20.4287V17.7716H22.4285V20.4287H19.7714Z" fill="#DA251D"/>
</g>
</g>
<mask id="mask2_1081_9826" style="mask-type:alpha" maskUnits="userSpaceOnUse" x="14" y="10" width="22" height="22">
<rect x="14.457" y="10.2428" width="21.2571" height="21.2571" fill="#D9D9D9"/>
</mask>
<g mask="url(#mask2_1081_9826)">
<circle cx="19.7714" cy="16.4428" r="1.77143" fill="#FFB800"/>
<path d="M25.9712 27.0713H22.4284H21.9855L19.7712 17.3285L25.9712 27.0713Z" fill="#FAFAFA"/>
<path d="M17.9778 28.8428V26.1857H20.7235L18.4649 18.79C18.0663 18.5685 17.7379 18.2438 17.4795 17.8157C17.2212 17.3876 17.092 16.93 17.092 16.4428C17.092 15.7047 17.3504 15.0774 17.867 14.5607C18.3837 14.044 19.0111 13.7857 19.7492 13.7857C20.3249 13.7857 20.8379 13.9518 21.2881 14.2839C21.7384 14.616 22.052 15.0404 22.2292 15.5571H25.0635V14.6714C25.0635 14.4204 25.1484 14.2101 25.3181 14.0403C25.4879 13.8706 25.6982 13.7857 25.9492 13.7857C26.082 13.7857 26.2112 13.8152 26.3367 13.8743C26.4622 13.9333 26.5692 14.0219 26.6578 14.14L28.1635 12.7228C28.2963 12.59 28.455 12.5051 28.6395 12.4682C28.8241 12.4313 29.0049 12.4571 29.182 12.5457L32.6363 14.14C32.8135 14.2285 32.9353 14.3577 33.0017 14.5275C33.0681 14.6972 33.0644 14.8633 32.9906 15.0257C32.902 15.2028 32.7729 15.3172 32.6031 15.3689C32.4334 15.4206 32.2673 15.4095 32.1049 15.3357L28.9163 13.8743L26.8349 15.8228V17.0628L28.9163 18.9671L32.1049 17.5057C32.2673 17.4319 32.437 17.4245 32.6142 17.4835C32.7913 17.5426 32.9168 17.6533 32.9906 17.8157C33.0792 17.9928 33.0866 18.1626 33.0128 18.325C32.9389 18.4874 32.8135 18.6128 32.6363 18.7014L29.182 20.34C29.0049 20.4285 28.8241 20.4544 28.6395 20.4175C28.455 20.3806 28.2963 20.2957 28.1635 20.1628L26.6578 18.7457C26.5692 18.8343 26.4622 18.9154 26.3367 18.9893C26.2112 19.0631 26.082 19.1 25.9492 19.1C25.6982 19.1 25.4879 19.0151 25.3181 18.8453C25.1484 18.6756 25.0635 18.4652 25.0635 18.2143V17.3285H22.2292C22.1849 17.4466 22.1369 17.5574 22.0853 17.6607C22.0336 17.764 21.9635 17.8747 21.8749 17.9928L26.3035 26.1857H29.492V28.8428H17.9778ZM19.7492 17.3285C20.0001 17.3285 20.2105 17.2437 20.3803 17.0739C20.55 16.9041 20.6349 16.6938 20.6349 16.4428C20.6349 16.1919 20.55 15.9815 20.3803 15.8118C20.2105 15.642 20.0001 15.5571 19.7492 15.5571C19.4982 15.5571 19.2879 15.642 19.1181 15.8118C18.9484 15.9815 18.8635 16.1919 18.8635 16.4428C18.8635 16.6938 18.9484 16.9041 19.1181 17.0739C19.2879 17.2437 19.4982 17.3285 19.7492 17.3285ZM22.5392 26.1857H24.2663L20.4578 19.1H20.3692L22.5392 26.1857Z" fill="#DA251D"/>
</g>
</svg>
