<svg width="36" height="36" viewBox="0 0 36 36" fill="none" xmlns="http://www.w3.org/2000/svg">
<mask id="mask0_65_913" style="mask-type:alpha" maskUnits="userSpaceOnUse" x="0" y="0" width="36" height="36">
<rect width="36" height="36" fill="#D9D9D9"/>
</mask>
<g mask="url(#mask0_65_913)">
<path d="M18 6.29999L5.39999 13.5L18 20.25L31.05 13.5L18 6.29999Z" fill="#FFB800"/>
<path d="M9 16.2V25.2L18 29.7L27 25.2V15.75L18 20.7L9 16.2Z" fill="#FAFAFA"/>
<circle cx="32.85" cy="27.45" r="1.35" fill="#FFB800"/>
<path d="M18.0001 31.5L7.50008 25.8V16.8L1.50008 13.5L18.0001 4.5L34.5001 13.5V24C34.5001 24.8284 33.8285 25.5 33.0001 25.5C32.1716 25.5 31.5001 24.8284 31.5001 24V15.15L28.5001 16.8V25.8L18.0001 31.5ZM18.0001 19.05L28.2751 13.5L18.0001 7.95L7.72508 13.5L18.0001 19.05ZM18.0001 28.0875L25.5001 24.0375V18.375L18.0001 22.5L10.5001 18.375V24.0375L18.0001 28.0875Z" fill="#DA251D"/>
</g>
</svg>
