<svg width="36" height="36" viewBox="0 0 36 36" fill="none" xmlns="http://www.w3.org/2000/svg">
<mask id="mask0_65_930" style="mask-type:alpha" maskUnits="userSpaceOnUse" x="0" y="0" width="100%" height="100%">
<rect width="100%" height="100%" fill="#D9D9D9"/>
</mask>
<g mask="url(#mask0_65_930)">
<path d="M32.85 14.85H3.6L2.7 15.3L7.2 30.15H28.35L32.85 14.85Z" fill="#FAFAFA"/>
<path d="M7.93974 31.5001C7.51474 31.5001 7.12724 31.3691 6.77724 31.1071C6.42724 30.8441 6.18974 30.5001 6.06474 30.0751L1.86474 14.9251C1.73974 14.5751 1.79574 14.2501 2.03274 13.9501C2.27074 13.6501 2.58974 13.5001 2.98974 13.5001H10.5647L17.1647 3.67506C17.2897 3.47506 17.4647 3.31256 17.6897 3.18756C17.9147 3.06256 18.1522 3.00006 18.4022 3.00006C18.6522 3.00006 18.8897 3.06256 19.1147 3.18756C19.3397 3.31256 19.5147 3.47506 19.6397 3.67506L26.2397 13.5001H33.8897C34.2897 13.5001 34.6087 13.6501 34.8467 13.9501C35.0837 14.2501 35.1397 14.5751 35.0147 14.9251L30.8147 30.0751C30.6897 30.5001 30.4522 30.8441 30.1022 31.1071C29.7522 31.3691 29.3647 31.5001 28.9397 31.5001H7.93974ZM8.68974 28.5001H28.1897L31.4897 16.5001H5.38974L8.68974 28.5001ZM14.2022 13.5001H22.6397L18.4022 7.20006L14.2022 13.5001Z" fill="#DA251D"/>
<path d="M20.5592 24.6196C19.9712 25.2066 19.2647 25.5001 18.4397 25.5001C17.6147 25.5001 16.9087 25.2066 16.3217 24.6196C15.7337 24.0316 15.4397 23.3251 15.4397 22.5001C15.4397 21.6751 15.7337 20.9686 16.3217 20.3806C16.9087 19.7936 17.6147 19.5001 18.4397 19.5001C19.2647 19.5001 19.9712 19.7936 20.5592 20.3806C21.1462 20.9686 21.4397 21.6751 21.4397 22.5001C21.4397 23.3251 21.1462 24.0316 20.5592 24.6196Z" fill="#FFB800"/>
<path d="M12.6 4.86001C12.6 3.66708 13.5671 2.70001 14.76 2.70001H22.14C23.3329 2.70001 24.3 3.66708 24.3 4.86001C24.3 5.15825 24.0582 5.40001 23.76 5.40001H13.14C12.8418 5.40001 12.6 5.15825 12.6 4.86001Z" fill="#FFB800"/>
</g>
</svg>
