<svg viewBox="0 0 36 36" fill="none" xmlns="http://www.w3.org/2000/svg">
<mask id="mask0_65_950" style="mask-type:alpha" maskUnits="userSpaceOnUse" x="0" y="0" width="100%" height="100%">
<rect width="100%" height="100%" fill="#D9D9D9"/>
</mask>
<g mask="url(#mask0_65_950)">
<path d="M7.64999 7.20001V13.5H26.55L29.7 10.35L26.55 7.20001H7.64999Z" fill="#FFB800"/>
<path d="M28.35 25.2L28.35 18.9L9.45001 18.9L6.30001 22.05L9.45001 25.2L28.35 25.2Z" fill="#FAFAFA"/>
<path d="M16.5 33.0001V27.0001H9L4.5 22.5001L9 18.0001H16.5V15.0001H6V6.00006H16.5V3.00006H19.5V6.00006H27L31.5 10.5001L27 15.0001H19.5V18.0001H30V27.0001H19.5V33.0001H16.5ZM9 12.0001H25.7625L27.2625 10.5001L25.7625 9.00006H9V12.0001ZM10.2375 24.0001H27V21.0001H10.2375L8.7375 22.5001L10.2375 24.0001Z" fill="#DA251D"/>
</g>
</svg>
