<svg width="36" height="36" viewBox="0 0 36 36" fill="none" xmlns="http://www.w3.org/2000/svg">
<mask id="mask0_922_6959" style="mask-type:alpha" maskUnits="userSpaceOnUse" x="0" y="0" width="36" height="36">
<rect width="36" height="36" fill="#D9D9D9"/>
</mask>
<g mask="url(#mask0_922_6959)">
<path d="M12.9068 23.0231C11.0749 22.9891 9.491 21.938 8.69969 20.4108C9.30748 20.4339 9.89893 20.3613 10.4544 20.2106L10.4218 19.2378C8.37468 18.8272 6.88611 17.1514 6.59571 15.2338C7.17441 15.4497 7.79685 15.5768 8.44405 15.5977L10.1911 15.654L8.73813 14.6823C6.79547 13.3831 6.10916 10.94 6.92567 8.87887C9.6286 11.8806 13.4745 13.8324 17.7789 14.0481L18.4415 14.0813L18.2909 13.4352C17.5858 10.4119 19.8801 7.5 23.0007 7.5C24.3914 7.5 25.6486 8.08687 26.5294 9.02652L26.7189 9.22872L26.9908 9.17516C27.7518 9.02525 28.4853 8.79867 29.1826 8.50393C28.7891 9.07355 28.2757 9.55497 27.6795 9.91203L27.9957 10.8375C28.5212 10.7747 29.0354 10.6762 29.536 10.544C29.0828 11.0283 28.5832 11.469 28.0454 11.8575L27.8266 12.0156L27.8388 12.2853C28.1664 19.5567 22.7446 27.6293 13.177 27.6293C10.9848 27.6293 8.90634 27.1458 7.03881 26.2824C9.26976 26.1315 11.4155 25.3204 13.206 23.9165L14.3122 23.0492L12.9068 23.0231Z" fill="#DA251D" stroke="#DA251D"/>
</g>
</svg>
