<svg width="36" height="36" viewBox="0 0 36 36" fill="none" xmlns="http://www.w3.org/2000/svg">
<path fill-rule="evenodd" clip-rule="evenodd" d="M18 30C24.6274 30 30 24.6274 30 18C30 11.3726 24.6274 6 18 6C11.3726 6 6 11.3726 6 18C6 20.4213 6.71713 22.6751 7.95057 24.5606L6.4 29.6L11.0755 27.8017C13.0318 29.1864 15.4209 30 18 30Z" fill="#FAFAFA" stroke="#DA251D" stroke-width="3"/>
<mask id="mask0_922_6965" style="mask-type:alpha" maskUnits="userSpaceOnUse" x="10" y="10" width="16" height="16">
<rect x="10.7998" y="10.8" width="14.4" height="14.4" fill="#D9D9D9"/>
</mask>
<g mask="url(#mask0_922_6965)">
<path d="M23.8036 24.56C22.2556 24.56 20.7467 24.2149 19.277 23.5246C17.8067 22.8349 16.5047 21.9229 15.371 20.7886C14.2367 19.6549 13.3247 18.3529 12.635 16.8826C11.9447 15.4129 11.5996 13.904 11.5996 12.356C11.5996 12.14 11.6716 11.96 11.8156 11.816C11.9596 11.672 12.1396 11.6 12.3556 11.6H15.2716C15.4396 11.6 15.5896 11.654 15.7216 11.762C15.8536 11.87 15.9316 12.008 15.9556 12.176L16.4236 14.696C16.4476 14.864 16.4447 15.0169 16.415 15.1546C16.3847 15.2929 16.3156 15.416 16.2076 15.524L14.4796 17.288C14.9836 18.152 15.6136 18.962 16.3696 19.718C17.1256 20.474 17.9596 21.128 18.8716 21.68L20.5636 19.988C20.6716 19.88 20.8127 19.7989 20.987 19.7446C21.1607 19.6909 21.3316 19.676 21.4996 19.7L23.9836 20.204C24.1516 20.24 24.2896 20.3209 24.3976 20.4466C24.5056 20.5729 24.5596 20.72 24.5596 20.888V23.804C24.5596 24.02 24.4876 24.2 24.3436 24.344C24.1996 24.488 24.0196 24.56 23.8036 24.56Z" fill="#FFB800"/>
</g>
</svg>
