<svg width="32" height="33" viewBox="0 0 32 33" fill="none" xmlns="http://www.w3.org/2000/svg">
<path d="M0 16.5C0 7.66344 7.16344 0.5 16 0.5C24.8366 0.5 32 7.66344 32 16.5V28.9444C32 30.9081 30.4081 32.5 28.4444 32.5H3.55556C1.59188 32.5 0 30.9081 0 28.9444V16.5Z" fill="#930D20"/>
<mask id="mask0_149_1088" style="mask-type:alpha" maskUnits="userSpaceOnUse" x="0" y="0" width="32" height="33">
<path d="M0 16.5C0 7.66344 7.16344 0.5 16 0.5C24.8366 0.5 32 7.66344 32 16.5V32.5H0V16.5Z" fill="#930D20"/>
</mask>
<g mask="url(#mask0_149_1088)">
<path d="M10 18.75H13V64.5H10V18.75Z" fill="#DDDDDD"/>
<path d="M22 18.75H19V64.5H22V18.75Z" fill="#D2D2D2"/>
<path d="M13 18.75H16V64.5H13V18.75Z" fill="#D2D2D2"/>
<path d="M19 18.75H16V64.5H19V18.75Z" fill="#C4C4C4"/>
<path d="M13 11.125H16V18.75H14V14.0312C14 13.479 13.5523 13.0312 13 13.0312L13 11.125Z" fill="#B3B3B3"/>
<path d="M19 11.125H16V18.75H18V14.0312C18 13.479 18.4477 13.0312 19 13.0312L19 11.125Z" fill="#A4A2A2"/>
<path d="M4 18.75H12.1C12.5971 18.75 13 19.1529 13 19.65V20.9062C13 21.821 12.2585 22.5625 11.3437 22.5625H8.61964C8.19853 22.5625 7.85714 22.2211 7.85714 21.8V21.0375H6.2875C5.02415 21.0375 4 20.0134 4 18.75Z" fill="#BBBBBB"/>
<path d="M28 18.75H19.9C19.4029 18.75 19 19.1529 19 19.65V20.9062C19 21.821 19.7415 22.5625 20.6563 22.5625H23.3804C23.8015 22.5625 24.1429 22.2211 24.1429 21.8V21.0375H25.7125C26.9759 21.0375 28 20.0134 28 18.75Z" fill="#A4A2A2"/>
<path d="M13.3061 7.85014C12.374 10.7088 13.7915 11.2163 14.6168 11.1127C14.9081 10.3359 16.0732 8.62695 16.3644 9.24839C16.6557 9.86984 15.9275 10.9574 17.6752 11.1127C19.4228 11.2681 19.1315 6.7626 18.549 7.85014C18.0829 8.72016 17.5781 8.52337 17.3839 8.31622C18.6655 5.70614 16.947 4.01787 15.9275 3.5C16.2673 4.06966 16.6557 5.36434 15.4906 5.98579C14.3255 6.60724 14.3255 8.0055 14.4712 8.62695C14.0051 8.75124 13.5002 8.16086 13.3061 7.85014Z" fill="#DA251D"/>
<mask id="mask1_149_1088" style="mask-type:alpha" maskUnits="userSpaceOnUse" x="13" y="3" width="6" height="9">
<path d="M13.3061 7.85014C12.374 10.7088 13.7915 11.2163 14.6168 11.1127C14.9081 10.3359 16.0732 8.62695 16.3644 9.24839C16.6557 9.86984 15.9275 10.9574 17.6752 11.1127C19.4228 11.2681 19.1315 6.7626 18.549 7.85014C18.0829 8.72016 17.5781 8.52337 17.3839 8.31622C18.6655 5.70614 16.947 4.01787 15.9275 3.5C16.2673 4.06966 16.6557 5.36434 15.4906 5.98579C14.3255 6.60724 14.3255 8.0055 14.4712 8.62695C14.0051 8.75124 13.5002 8.16086 13.3061 7.85014Z" fill="#DA251D"/>
</mask>
<g mask="url(#mask1_149_1088)">
<rect x="11.769" y="2.32715" width="4.51282" height="8.79808" fill="#F23930"/>
</g>
</g>
</svg>
